<svg width="15" height="12" viewBox="0 0 15 12" fill="none" xmlns="http://www.w3.org/2000/svg">
<path d="M12.6002 12H1.8002C1.4402 12 1.2002 11.76 1.2002 11.4V3.6C1.2002 3.24 1.4402 3 1.8002 3C2.1602 3 2.4002 3.24 2.4002 3.6V10.8H12.0002V3.6C12.0002 3.24 12.2402 3 12.6002 3C12.9602 3 13.2002 3.24 13.2002 3.6V11.4C13.2002 11.76 12.9602 12 12.6002 12Z" fill="currentColor"/>
<path d="M13.8 4.2H0.6C0.24 4.2 0 3.96 0 3.6V0.6C0 0.24 0.24 0 0.6 0H13.8C14.16 0 14.4 0.24 14.4 0.6V3.6C14.4 3.96 14.16 4.2 13.8 4.2ZM1.2 3H13.2V1.2H1.2V3ZM8.4 6.6H6C5.64 6.6 5.4 6.36 5.4 6C5.4 5.64 5.64 5.4 6 5.4H8.4C8.76 5.4 9 5.64 9 6C9 6.36 8.76 6.6 8.4 6.6Z" fill="currentColor"/>
</svg>
