<svg width="19" height="15" viewBox="0 0 19 15" fill="none" xmlns="http://www.w3.org/2000/svg">
<path d="M16.4165 15H2.9165C2.4665 15 2.1665 14.7 2.1665 14.25V4.5C2.1665 4.05 2.4665 3.75 2.9165 3.75C3.3665 3.75 3.6665 4.05 3.6665 4.5V13.5H15.6665V4.5C15.6665 4.05 15.9665 3.75 16.4165 3.75C16.8665 3.75 17.1665 4.05 17.1665 4.5V14.25C17.1665 14.7 16.8665 15 16.4165 15Z" fill="currentColor"/>
<path d="M17.9165 5.25H1.4165C0.966504 5.25 0.666504 4.95 0.666504 4.5V0.75C0.666504 0.3 0.966504 0 1.4165 0H17.9165C18.3665 0 18.6665 0.3 18.6665 0.75V4.5C18.6665 4.95 18.3665 5.25 17.9165 5.25ZM2.1665 3.75H17.1665V1.5H2.1665V3.75ZM11.1665 8.25H8.1665C7.7165 8.25 7.4165 7.95 7.4165 7.5C7.4165 7.05 7.7165 6.75 8.1665 6.75H11.1665C11.6165 6.75 11.9165 7.05 11.9165 7.5C11.9165 7.95 11.6165 8.25 11.1665 8.25Z" fill="currentColor"/>
</svg>
