<svg width="15" height="15" viewBox="0 0 15 15" fill="none" version="1.1" xmlns="http://www.w3.org/2000/svg">
<path d="m7.5 0a7.5 7.5 0 0 0-7.5 7.5 7.5 7.5 0 0 0 7.5 7.5 7.5 7.5 0 0 0 7.4238-6.4453h-8.7324l2.9609 2.9609a1 1 0 0 1 0 1.4141 1 1 0 0 1-0.10547 0.070312h-1.2051a1 1 0 0 1-0.10547-0.070312l-4.666-4.668a1 1 0 0 1-0.070312-0.10547v-1.2031a1 1 0 0 1 0.070312-0.10547l4.666-4.666a1 1 0 0 1 0.10547-0.070312h1.2051a1 1 0 0 1 0.10547 0.070312 1 1 0 0 1 0 1.4141l-2.9609 2.959h8.7461a7.5 7.5 0 0 0-7.4375-6.5547z" fill="currentColor"/>
</svg>
