<svg width="50" height="50" viewBox="0 0 50 50" fill="none" xmlns="http://www.w3.org/2000/svg">
<circle cx="25" cy="25" r="25" fill="currentColor"/>
<path d="M28.5767 10C29.4488 10.0001 30.3057 10.2282 31.0623 10.6618C31.819 11.0954 32.4491 11.7193 32.89 12.4717L33.0484 12.7633L33.3334 13.3333H36.6667C37.9421 13.3333 39.1692 13.8205 40.0971 14.6955C41.0251 15.5704 41.5836 16.7668 41.6584 18.04L41.6667 18.3333V35C41.6668 36.2754 41.1795 37.5025 40.3046 38.4304C39.4296 39.3583 38.2332 39.9168 36.96 39.9917L36.6667 40H13.3334C12.058 40.0001 10.8308 39.5128 9.90294 38.6379C8.97503 37.7629 8.41653 36.5665 8.34171 35.2933L8.33337 35V18.3333C8.3333 17.058 8.82058 15.8308 9.69551 14.9029C10.5704 13.975 11.7669 13.4165 13.04 13.3417L13.3334 13.3333H16.6667L16.95 12.7633C17.3404 11.9833 17.928 11.3189 18.6546 10.8362C19.3811 10.3534 20.2213 10.0692 21.0917 10.0117L21.425 10H28.575H28.5767ZM28.5767 12.5H21.4234C20.9588 12.5 20.5035 12.6295 20.1084 12.8738C19.7134 13.1181 19.3942 13.4677 19.1867 13.8833L18.9034 14.45C18.6959 14.8656 18.3767 15.2152 17.9816 15.4595C17.5866 15.7039 17.1312 15.8333 16.6667 15.8333H13.3334C12.6703 15.8333 12.0344 16.0967 11.5656 16.5656C11.0968 17.0344 10.8334 17.6703 10.8334 18.3333V35C10.8334 35.663 11.0968 36.2989 11.5656 36.7678C12.0344 37.2366 12.6703 37.5 13.3334 37.5H36.6667C37.3298 37.5 37.9656 37.2366 38.4345 36.7678C38.9033 36.2989 39.1667 35.663 39.1667 35V18.3333C39.1667 17.6703 38.9033 17.0344 38.4345 16.5656C37.9656 16.0967 37.3298 15.8333 36.6667 15.8333H33.3334C32.8688 15.8333 32.4135 15.7039 32.0184 15.4595C31.6234 15.2152 31.3042 14.8656 31.0967 14.45L30.8134 13.8833C30.6059 13.4677 30.2867 13.1181 29.8916 12.8738C29.4966 12.6295 29.0412 12.5 28.5767 12.5ZM25 20C25.8756 19.9999 26.7425 20.1723 27.5514 20.5073C28.3603 20.8423 29.0953 21.3334 29.7144 21.9524C30.3335 22.5715 30.8246 23.3065 31.1597 24.1153C31.4948 24.9242 31.6672 25.7911 31.6672 26.6667C31.6672 27.5422 31.4948 28.4091 31.1597 29.218C30.8246 30.0269 30.3335 30.7618 29.7144 31.3809C29.0953 32 28.3603 32.491 27.5514 32.826C26.7425 33.161 25.8756 33.3334 25 33.3333C23.232 33.3332 21.5365 32.6308 20.2863 31.3805C19.0362 30.1303 18.3339 28.4347 18.3339 26.6667C18.3339 24.8986 19.0362 23.203 20.2863 21.9528C21.5365 20.7026 23.232 20.0001 25 20ZM25 22.5C24.4528 22.4999 23.911 22.6077 23.4054 22.8171C22.8998 23.0264 22.4405 23.3333 22.0535 23.7202C21.6665 24.1072 21.3596 24.5665 21.1502 25.0721C20.9408 25.5776 20.833 26.1195 20.833 26.6667C20.833 27.2139 20.9408 27.7557 21.1502 28.2613C21.3596 28.7668 21.6665 29.2262 22.0535 29.6131C22.4405 30 22.8998 30.3069 23.4054 30.5163C23.911 30.7257 24.4528 30.8334 25 30.8333C26.105 30.8332 27.1647 30.3942 27.9461 29.6128C28.7274 28.8314 29.1663 27.7717 29.1663 26.6667C29.1663 25.5617 28.7274 24.5019 27.9461 23.7205C27.1647 22.9391 26.105 22.5001 25 22.5ZM35 18.3333C35.4421 18.3333 35.866 18.5089 36.1786 18.8215C36.4911 19.134 36.6667 19.558 36.6667 20C36.6667 20.442 36.4911 20.866 36.1786 21.1785C35.866 21.4911 35.4421 21.6667 35 21.6667C34.558 21.6667 34.1341 21.4911 33.8215 21.1785C33.509 20.866 33.3334 20.442 33.3334 20C33.3334 19.558 33.509 19.134 33.8215 18.8215C34.1341 18.5089 34.558 18.3333 35 18.3333Z" fill="white"/>
</svg>
