<svg width="22" height="20" viewBox="0 0 22 20" fill="none" xmlns="http://www.w3.org/2000/svg">
<path d="M15.3041 7.75687C15.5519 7.75648 15.7943 7.82928 16.0005 7.96607C16.2067 8.10285 16.3676 8.29746 16.4627 8.52527C16.5578 8.75309 16.5829 9.00387 16.5348 9.24588C16.4867 9.48789 16.3675 9.71026 16.1924 9.88485C16.0173 10.0594 15.7941 10.1784 15.5511 10.2267C15.3081 10.2749 15.0562 10.2503 14.8272 10.156C14.5982 10.0617 14.4024 9.90188 14.2647 9.69678C14.127 9.49168 14.0535 9.25052 14.0535 9.00381C14.0535 8.67344 14.1852 8.35657 14.4197 8.12278C14.6541 7.88899 14.9722 7.75738 15.3041 7.75687ZM7.03606 7.75687C7.28387 7.75648 7.52623 7.82928 7.73247 7.96607C7.93871 8.10285 8.09956 8.29746 8.19466 8.52527C8.28976 8.75309 8.31485 9.00387 8.26674 9.24588C8.21863 9.48789 8.09949 9.71026 7.9244 9.88485C7.7493 10.0594 7.52612 10.1784 7.2831 10.2267C7.04007 10.2749 6.78813 10.2503 6.55914 10.156C6.33015 10.0617 6.13441 9.90188 5.99669 9.69678C5.85898 9.49168 5.78546 9.25052 5.78546 9.00381C5.78546 8.67344 5.91716 8.35657 6.15164 8.12278C6.38611 7.88899 6.7042 7.75738 7.03606 7.75687ZM11.1701 7.75687C11.4179 7.75648 11.6602 7.82928 11.8665 7.96607C12.0727 8.10285 12.2336 8.29746 12.3287 8.52527C12.4238 8.75309 12.4489 9.00387 12.4008 9.24588C12.3526 9.48789 12.2335 9.71026 12.0584 9.88485C11.8833 10.0594 11.6601 10.1784 11.4171 10.2267C11.1741 10.2749 10.9221 10.2503 10.6932 10.156C10.4642 10.0617 10.2684 9.90188 10.1307 9.69678C9.99299 9.49168 9.91948 9.25052 9.91948 9.00381C9.91896 8.67396 10.0499 8.35738 10.2837 8.12358C10.5174 7.88979 10.8348 7.7579 11.1661 7.75687H11.1701ZM11.421 0.884022H11.4308C14.1633 0.973786 16.6135 1.94168 18.3678 3.43841C20.1614 4.96831 21.2356 7.05046 21.163 9.32579C21.0925 11.6011 19.8929 13.6189 18.0072 15.0434C16.1626 16.4367 13.6517 17.2602 10.9192 17.19C10.1782 17.1685 9.44068 17.0797 8.71593 16.9246C8.08508 16.7899 7.46675 16.6025 6.86748 16.3645L2.3924 18.1208L3.89193 14.5712C3.08417 13.8763 2.41862 13.0328 1.93176 12.087C1.39872 11.0559 1.13641 9.90735 1.16925 8.74818C1.24178 6.47089 2.4414 4.45119 4.32709 3.03057C6.17358 1.63141 8.68261 0.809868 11.4171 0.884022H11.421ZM11.3876 2.12316H11.3778C8.93547 2.05486 6.70675 2.78469 5.07784 4.00627C3.48814 5.21614 2.47473 6.9002 2.41788 8.78135C2.39226 9.73361 2.60727 10.677 3.04318 11.525C3.52555 12.4498 4.20368 13.2594 5.0308 13.8979L5.40127 14.1926L4.68581 15.8845L6.88316 15.0239L7.11838 15.1234C7.71699 15.377 8.33858 15.573 8.97467 15.7088C9.62738 15.8477 10.2913 15.928 10.9584 15.9489C13.4027 16.0191 15.6334 15.2932 17.2623 14.0638C18.852 12.8617 19.8654 11.1777 19.9223 9.29652C19.9869 7.40952 19.0696 5.67277 17.5563 4.38094C16.0058 3.05789 13.832 2.20317 11.3916 2.12902L11.3876 2.12316Z" fill="currentColor" stroke="currentColor"/>
</svg>
