<svg width="51" height="44" viewBox="0 0 51 44" fill="none" xmlns="http://www.w3.org/2000/svg">
<g clip-path="url(#clip0_1426_400)">
<path d="M23.2865 37.6037C24.6691 38.6259 26.2132 39.4135 27.856 39.9345C31.2781 41.0071 35.0785 40.8418 38.8912 39.2328C39.1485 39.1199 39.4395 39.1084 39.705 39.2006L44.5878 40.8136L44.0385 36.8819C44.0124 36.6915 44.0362 36.4977 44.1074 36.3191C44.1787 36.1404 44.2951 35.9829 44.4454 35.8616C45.4471 35.0932 46.3145 34.1668 47.0129 33.1195C48.0078 31.6413 48.4044 29.846 48.1238 28.091C47.7666 26.2288 46.9251 24.4913 45.6824 23.0504C45.4382 22.7439 45.1737 22.4455 44.9011 22.1511C45.1436 21.2801 45.3164 20.3916 45.4179 19.4937C46.1482 20.1613 46.8282 20.881 47.4524 21.6471C48.9388 23.3979 49.94 25.5019 50.3577 27.7523C50.7294 30.039 50.2243 32.3809 48.9417 34.3172C48.2341 35.3926 47.3719 36.3599 46.3822 37.1883L47.0374 42.1886C47.0771 42.3815 47.065 42.5814 47.0024 42.7682C46.9398 42.955 46.8288 43.1223 46.6806 43.2533C46.5323 43.3844 46.3519 43.4745 46.1575 43.5148C45.9631 43.5552 45.7613 43.5442 45.5725 43.4831L39.3713 41.4668C35.5025 43.0904 31.1797 43.3088 27.1643 42.0838C24.39 41.193 21.8706 39.6584 19.8157 37.6077C20.0802 37.6077 20.3569 37.6319 20.6539 37.644C21.5409 37.6682 22.4198 37.644 23.2825 37.6037H23.2865ZM29.8417 14.6466C30.3561 14.6458 30.8592 14.7963 31.2874 15.0789C31.7155 15.3616 32.0494 15.7637 32.2468 16.2345C32.4442 16.7053 32.4963 17.2235 32.3964 17.7236C32.2966 18.2237 32.0492 18.6832 31.6858 19.044C31.3223 19.4048 30.859 19.6506 30.3545 19.7504C29.8501 19.8501 29.3271 19.7993 28.8517 19.6044C28.3764 19.4095 27.9701 19.0792 27.6842 18.6554C27.3983 18.2316 27.2457 17.7332 27.2457 17.2234C27.2457 16.5407 27.5191 15.8859 28.0058 15.4028C28.4925 14.9196 29.1528 14.6477 29.8417 14.6466ZM12.6786 14.6466C13.1931 14.6458 13.6962 14.7963 14.1243 15.0789C14.5524 15.3616 14.8863 15.7637 15.0837 16.2345C15.2811 16.7053 15.3332 17.2235 15.2333 17.7236C15.1335 18.2237 14.8862 18.6832 14.5227 19.044C14.1592 19.4048 13.6959 19.6506 13.1915 19.7504C12.687 19.8501 12.164 19.7993 11.6886 19.6044C11.2133 19.4095 10.807 19.0792 10.5211 18.6554C10.2352 18.2316 10.0826 17.7332 10.0826 17.2234C10.0826 16.5407 10.356 15.8859 10.8427 15.4028C11.3294 14.9196 11.9897 14.6477 12.6786 14.6466ZM21.2602 14.6466C21.7746 14.6458 22.2777 14.7963 22.7058 15.0789C23.1339 15.3616 23.4678 15.7637 23.6652 16.2345C23.8627 16.7053 23.9147 17.2235 23.8149 17.7236C23.715 18.2237 23.4677 18.6832 23.1042 19.044C22.7408 19.4048 22.2775 19.6506 21.773 19.7504C21.2685 19.8501 20.7455 19.7993 20.2702 19.6044C19.7948 19.4095 19.3885 19.0792 19.1026 18.6554C18.8167 18.2316 18.6641 17.7332 18.6641 17.2234C18.6631 16.5418 18.935 15.8876 19.4202 15.4044C19.9054 14.9213 20.5642 14.6488 21.252 14.6466H21.2602ZM21.781 0.444132H21.8014C27.4736 0.629627 32.5598 2.62975 36.2016 5.72268C39.9247 8.88417 42.1545 13.1869 42.004 17.8888C41.8575 22.5907 39.3673 26.7603 35.4529 29.704C31.6239 32.5832 26.4115 34.2849 20.7393 34.1398C19.2011 34.0955 17.6702 33.9119 16.1658 33.5913C14.8562 33.313 13.5727 32.9258 12.3287 32.434L3.03915 36.0633L6.15194 28.7281C4.47515 27.2922 3.09358 25.5492 2.08293 23.5948C0.97642 21.464 0.431907 19.0905 0.500083 16.6951C0.650637 11.9892 3.14087 7.81555 7.05526 4.87989C10.8883 1.98858 16.0966 0.290897 21.7729 0.444132H21.781ZM21.7118 3.00477H21.6915C16.6215 2.86364 11.995 4.37179 8.61369 6.89614C5.31372 9.3963 3.21004 12.8763 3.09204 16.7637C3.03885 18.7315 3.48518 20.681 4.39006 22.4334C5.39139 24.3444 6.79908 26.0173 8.51603 27.3369L9.28508 27.9458L7.79989 31.442L12.3612 29.6637L12.8495 29.8693C14.0921 30.3934 15.3825 30.7985 16.7029 31.0791C18.0578 31.366 19.4359 31.532 20.8207 31.5751C25.8948 31.7203 30.5253 30.2202 33.9067 27.6797C37.2066 25.1957 39.3103 21.7156 39.4283 17.8283C39.5626 13.9288 37.6583 10.3399 34.517 7.67038C31.2984 4.93634 26.7859 3.17011 21.72 3.01687L21.7118 3.00477Z" fill="currentColor"/>
</g>
<defs>
<clipPath id="clip0_1426_400">
<rect width="50" height="43.1115" fill="white" transform="translate(0.5 0.444214)"/>
</clipPath>
</defs>
</svg>
