<svg width="19" height="17" viewBox="0 0 19 17" fill="none" xmlns="http://www.w3.org/2000/svg">
<path d="M8.8282 3.44734L9.50604 4.0723L10.1839 3.44734L10.7035 2.96827C11.5061 2.2283 12.5823 1.8107 13.7475 1.8107C14.9138 1.8107 15.9857 2.22531 16.7875 2.96455C17.5859 3.7007 18.0031 4.65491 18 5.65773V5.66084C18 6.66354 17.5796 7.61899 16.7802 8.35638C16.78 8.35663 16.7797 8.35688 16.7794 8.35713L9.49652 15.0469L2.22461 8.34227C1.42248 7.60272 1.00002 6.64984 1.00003 5.6497L1.00002 5.64659C0.996907 4.64583 1.41654 3.69102 2.21656 2.95341C3.01499 2.21727 4.09117 1.79956 5.2525 1.79956C6.4166 1.79956 7.49718 2.22016 8.30053 2.96084L8.8282 3.44734ZM9.78915 15.3167L9.78865 15.3162C9.78882 15.3164 9.78899 15.3165 9.78915 15.3167L9.49396 15.6368L9.78915 15.3167Z" stroke="currentColor" stroke-width="2"/>
</svg>
