<svg width="19" height="17" viewBox="0 0 19 17" fill="none" xmlns="http://www.w3.org/2000/svg">
<path d="M9.50004 0.583252C9.38984 0.583266 9.28073 0.605139 9.17903 0.647605C9.07734 0.69007 8.98508 0.752285 8.90759 0.830648L0.502645 8.16463C0.450152 8.20337 0.407488 8.25388 0.378088 8.31212C0.348687 8.37036 0.333372 8.43468 0.333374 8.49992C0.333374 8.61042 0.377273 8.71641 0.455413 8.79455C0.533553 8.87269 0.639534 8.91658 0.750041 8.91658H2.83337V15.5833C2.83337 16.0433 3.20671 16.4166 3.66671 16.4166H7.00004C7.46004 16.4166 7.83337 16.0433 7.83337 15.5833V10.5833H11.1667V15.5833C11.1667 16.0433 11.54 16.4166 12 16.4166H15.3334C15.7934 16.4166 16.1667 16.0433 16.1667 15.5833V8.91658H18.25C18.3605 8.91658 18.4665 8.87269 18.5447 8.79455C18.6228 8.71641 18.6667 8.61042 18.6667 8.49992C18.6667 8.43468 18.6514 8.37036 18.622 8.31212C18.5926 8.25388 18.5499 8.20337 18.4974 8.16463L10.0974 0.835531C10.0957 0.833896 10.0941 0.832269 10.0925 0.830648C10.015 0.752285 9.92274 0.69007 9.82105 0.647605C9.71935 0.605139 9.61024 0.583266 9.50004 0.583252Z" fill="currentColor"/>
</svg>
