<svg width="19" height="19" viewBox="0 0 19 19" fill="none" xmlns="http://www.w3.org/2000/svg">
<path d="M18.4615 16.0385V16.8847C18.4615 17.8847 17.6154 18.7308 16.6154 18.7308H1.84615C0.846154 18.7308 0 17.8847 0 16.8847V16.0385C0 13.8077 2.61538 12.4231 5.07692 11.3462L5.30769 11.2308C5.5 11.1539 5.69231 11.1539 5.88461 11.2693C6.88461 11.9231 8 12.2693 9.1923 12.2693C10.3846 12.2693 11.5385 11.8847 12.5 11.2693C12.6923 11.1539 12.8846 11.1539 13.0769 11.2308L13.3077 11.3462C15.8461 12.4231 18.4615 13.7693 18.4615 16.0385ZM9.23077 0.269287C11.7692 0.269287 13.8077 2.53852 13.8077 5.34621C13.8077 8.1539 11.7692 10.4231 9.23077 10.4231C6.69231 10.4231 4.65384 8.1539 4.65384 5.34621C4.65384 2.53852 6.69231 0.269287 9.23077 0.269287Z" fill="currentColor"/>
</svg>
