<svg width="18" height="19" viewBox="0 0 18 19" fill="none" xmlns="http://www.w3.org/2000/svg">
<path d="M7.27498 0.775024C3.5156 0.775024 0.474976 3.81565 0.474976 7.57502C0.474976 11.3344 3.5156 14.375 7.27498 14.375C8.61716 14.375 9.85935 13.9813 10.9125 13.3125L15.825 18.225L17.525 16.525L12.675 11.6875C13.5468 10.5438 14.075 9.12659 14.075 7.57502C14.075 3.81565 11.0344 0.775024 7.27498 0.775024ZM7.27498 2.37502C10.1547 2.37502 12.475 4.69534 12.475 7.57502C12.475 10.4547 10.1547 12.775 7.27498 12.775C4.39529 12.775 2.07498 10.4547 2.07498 7.57502C2.07498 4.69534 4.39529 2.37502 7.27498 2.37502Z" fill="currentColor"/>
</svg>
