<svg width="26" height="27" viewBox="0 0 26 27" fill="none" xmlns="http://www.w3.org/2000/svg">
<path d="M10.6248 0C4.98574 0 0.424805 4.56094 0.424805 10.2C0.424805 15.8391 4.98574 20.4 10.6248 20.4C12.6381 20.4 14.5014 19.8094 16.0811 18.8063L23.4498 26.175L25.9998 23.625L18.7248 16.3688C20.0326 14.6531 20.8248 12.5273 20.8248 10.2C20.8248 4.56094 16.2639 0 10.6248 0ZM10.6248 2.4C14.9443 2.4 18.4248 5.88047 18.4248 10.2C18.4248 14.5195 14.9443 18 10.6248 18C6.30527 18 2.8248 14.5195 2.8248 10.2C2.8248 5.88047 6.30527 2.4 10.6248 2.4Z" fill="currentColor"/>
</svg>
