<svg width="33" height="29" viewBox="0 0 33 29" fill="none" xmlns="http://www.w3.org/2000/svg">
<path fill-rule="evenodd" clip-rule="evenodd" d="M3.09903 0.962659L31.5324 12.1377C31.7082 12.1873 31.86 12.2905 31.9678 12.434C32.0756 12.5774 32.1344 12.7543 32.1366 12.9415C32.1388 13.1286 32.0841 13.3173 31.9799 13.4828C31.8756 13.6483 31.7266 13.7829 31.5524 13.8689L2.1554 28.5538C1.98655 28.6385 1.80109 28.6737 1.62204 28.6551C1.44299 28.6364 1.27824 28.5648 1.14824 28.449C1.01824 28.3333 0.928718 28.1785 0.890783 28.0038C0.852848 27.8292 0.868171 27.6425 0.934848 27.4668L4.71233 17.3878L20.3256 13.7295L4.93858 11.8731L1.80213 2.19595C1.74787 2.02771 1.74564 1.84259 1.79569 1.66343C1.84575 1.48428 1.94591 1.31893 2.08382 1.18778C2.22173 1.05664 2.39135 0.965434 2.57175 0.925429C2.75216 0.885424 2.93546 0.898367 3.09903 0.962659Z" fill="currentColor"/>
</svg>
