<svg width="15" height="14" viewBox="0 0 15 14" fill="none" xmlns="http://www.w3.org/2000/svg">
<path d="M3.76476 12.9999C3.64213 12.9999 3.52033 12.9615 3.41625 12.8858C3.23195 12.752 3.14141 12.5293 3.17991 12.3047L3.78192 8.79432C3.79197 8.73586 3.77257 8.67629 3.73016 8.63486L1.17982 6.14883C1.01672 5.98978 0.959102 5.75651 1.02956 5.53984C1.10001 5.32317 1.28375 5.16831 1.50907 5.13552L5.03366 4.62336C5.09239 4.61485 5.14304 4.57802 5.16927 4.52472L6.74551 1.33107C6.84638 1.12682 7.05035 1 7.27818 1C7.50601 1 7.71012 1.12682 7.81085 1.33107L9.3871 4.525C9.41333 4.5783 9.46398 4.61499 9.52271 4.62364L13.0474 5.1358C13.2729 5.16859 13.4565 5.32345 13.5268 5.54012C13.5971 5.75679 13.5396 5.99006 13.3764 6.14911L10.8261 8.63486C10.7837 8.67629 10.7643 8.73573 10.7743 8.79432L11.3763 12.3047C11.4147 12.5293 11.3241 12.752 11.14 12.8858C10.9558 13.0198 10.7161 13.0371 10.5144 12.9311L7.36189 11.2737C7.30944 11.2459 7.24679 11.246 7.19433 11.2735L4.04184 12.931C3.95408 12.977 3.85921 12.9999 3.76476 12.9999ZM7.27818 10.8389C7.37305 10.8389 7.46806 10.8617 7.5547 10.9071L10.7072 12.5646C10.7965 12.6122 10.8697 12.5707 10.8968 12.5509C10.924 12.5311 10.9855 12.4743 10.9685 12.3747L10.3665 8.8645C10.3334 8.67169 10.3972 8.47511 10.5374 8.33852L13.0878 5.85249C13.1602 5.7819 13.1438 5.69986 13.1332 5.66792C13.1229 5.63597 13.0879 5.55993 12.988 5.54542L9.46328 5.03326C9.26963 5.00508 9.10249 4.88356 9.01599 4.70819L7.43974 1.51439C7.39496 1.42371 7.31181 1.41394 7.27818 1.41394C7.24456 1.41394 7.16141 1.42371 7.11676 1.51425L5.54052 4.70819C5.45388 4.88356 5.28674 5.00494 5.09323 5.03312L1.56851 5.54528C1.46847 5.55979 1.43359 5.63583 1.42313 5.66778C1.41281 5.69986 1.39634 5.7819 1.46861 5.85236L4.0191 8.33852C4.15917 8.47497 4.22307 8.67169 4.19 8.8645L3.58799 12.3747C3.57083 12.4743 3.63236 12.531 3.65957 12.5508C3.68691 12.5706 3.75974 12.6116 3.84917 12.5646L7.0018 10.907C7.0883 10.8617 7.18331 10.8389 7.27818 10.8389Z" fill="currentColor" stroke="currentColor"/>
</svg>
