<svg width="20" height="19" viewBox="0 0 20 19" fill="none" xmlns="http://www.w3.org/2000/svg">
<path d="M4.9634 18.2502C4.7876 18.2502 4.613 18.1952 4.4638 18.0866C4.1996 17.8948 4.0698 17.5756 4.125 17.2536L4.988 12.2213C5.0024 12.1375 4.9746 12.0521 4.9138 11.9927L1.25777 8.42891C1.02397 8.20091 0.94137 7.86651 1.04237 7.55591C1.14337 7.2453 1.40677 7.0233 1.72978 6.9763L6.78242 6.2421C6.86662 6.2299 6.93922 6.17709 6.97682 6.10069L9.23644 1.52246C9.38104 1.22965 9.67344 1.04785 10 1.04785C10.3266 1.04785 10.6193 1.22965 10.7637 1.52246L13.0233 6.10109C13.0609 6.1775 13.1335 6.2301 13.2177 6.2425L18.2705 6.9767C18.5937 7.0237 18.8569 7.2457 18.9577 7.55631C19.0585 7.86691 18.9761 8.20131 18.7421 8.42931L15.0861 11.9927C15.0253 12.0521 14.9975 12.1373 15.0119 12.2213L15.8749 17.2536C15.9299 17.5756 15.8001 17.8948 15.5361 18.0866C15.2721 18.2788 14.9285 18.3036 14.6393 18.1516L10.12 15.7756C10.0448 15.7358 9.95504 15.736 9.87984 15.7754L5.36061 18.1514C5.23481 18.2174 5.0988 18.2502 4.9634 18.2502ZM10 15.1524C10.136 15.1524 10.2722 15.185 10.3964 15.2502L14.9157 17.6262C15.0437 17.6944 15.1487 17.635 15.1875 17.6066C15.2265 17.5782 15.3147 17.4968 15.2903 17.354L14.4273 12.3219C14.3799 12.0455 14.4713 11.7637 14.6723 11.5679L18.3283 8.00411C18.4321 7.90291 18.4087 7.78531 18.3935 7.73951C18.3787 7.69371 18.3285 7.58471 18.1853 7.56391L13.1325 6.8297C12.8549 6.7893 12.6153 6.6151 12.4913 6.3637L10.2316 1.78526C10.1674 1.65526 10.0482 1.64126 10 1.64126C9.95185 1.64126 9.83264 1.65526 9.76864 1.78506L7.50902 6.3637C7.38482 6.6151 7.14522 6.7891 6.86782 6.8295L1.81498 7.56371C1.67158 7.58451 1.62158 7.69351 1.60658 7.73931C1.59178 7.78531 1.56818 7.90291 1.67178 8.00391L5.32801 11.5679C5.52881 11.7635 5.62041 12.0455 5.57301 12.3219L4.71 17.354C4.6854 17.4968 4.7736 17.578 4.8126 17.6064C4.8518 17.6348 4.9562 17.6936 5.0844 17.6262L9.60384 15.25C9.72784 15.185 9.86404 15.1524 10 15.1524Z" fill="currentColor" stroke="currentColor"/>
</svg>
