<svg width="15" height="21" viewBox="0 0 15 21" fill="none" xmlns="http://www.w3.org/2000/svg">
<path d="M2.88614 20.1004H12.4434C13.1395 20.1004 13.7054 19.5327 13.7054 18.8355V5.95739C13.7054 5.66933 13.4722 5.43516 13.1842 5.43516H2.14529C1.85734 5.43516 1.62412 5.66932 1.62412 5.95739V18.8355C1.62412 19.5327 2.19007 20.1004 2.88614 20.1004ZM2.66647 18.8355V6.47962H12.6633V18.8355C12.6633 18.9572 12.5644 19.056 12.4436 19.056H2.88614C2.76534 19.056 2.66647 18.9572 2.66647 18.8355Z" fill="currentColor" stroke="currentColor" stroke-width="0.2"/>
<path d="M14.8665 5.21444V5.21441V4.29922C14.8665 3.60179 14.3006 3.03428 13.6045 3.03428H1.72891C1.03262 3.03428 0.466895 3.60202 0.466895 4.29922V5.21441C0.466895 5.91184 1.03285 6.47935 1.72891 6.47935H13.6043C14.3004 6.47935 14.8663 5.91184 14.8665 5.21444ZM1.50924 4.29943C1.50924 4.17772 1.60812 4.07895 1.72891 4.07895H13.6045C13.7253 4.07895 13.8242 4.17772 13.8242 4.29943V5.21462C13.8242 5.33633 13.7253 5.43509 13.6045 5.43509H1.72891C1.60812 5.43509 1.50924 5.33633 1.50924 5.21462V4.29943Z" fill="currentColor" stroke="currentColor" stroke-width="0.2"/>
<path d="M10.7588 3.55713V3.55704V2.16494C10.7588 1.46772 10.1928 0.9 9.49658 0.9H5.84122C5.14492 0.9 4.5792 1.46774 4.5792 2.16494V3.55704C4.5792 3.8451 4.81242 4.07927 5.10037 4.07927H10.2374C10.5256 4.07927 10.7585 3.84507 10.7588 3.55713ZM9.71646 2.16506V3.03481H5.62155V2.16494C5.62155 2.04323 5.72042 1.94447 5.84122 1.94447H9.49658C9.61735 1.94447 9.71631 2.04323 9.71646 2.16506Z" fill="currentColor" stroke="currentColor" stroke-width="0.2"/>
<path d="M7.14316 17.1772C7.14316 17.4652 7.37638 17.6994 7.66434 17.6994C7.95226 17.6994 8.18551 17.4655 8.18551 17.1772V8.35924C8.18551 8.07118 7.95229 7.83701 7.66434 7.83701C7.37638 7.83701 7.14316 8.07118 7.14316 8.35924V17.1772Z" fill="currentColor" stroke="currentColor" stroke-width="0.2"/>
<path d="M9.93174 17.1772C9.93174 17.4652 10.165 17.6994 10.4529 17.6994C10.7408 17.6994 10.9741 17.4655 10.9741 17.1772V8.35924C10.9741 8.07118 10.7409 7.83701 10.4529 7.83701C10.165 7.83701 9.93174 8.07118 9.93174 8.35924V17.1772Z" fill="currentColor" stroke="currentColor" stroke-width="0.2"/>
<path d="M4.35947 17.1772C4.35947 17.4652 4.59269 17.6994 4.88065 17.6994C5.16857 17.6994 5.40182 17.4655 5.40182 17.1772V8.35924C5.40182 8.07118 5.1686 7.83701 4.88065 7.83701C4.59269 7.83701 4.35947 8.07118 4.35947 8.35924V17.1772Z" fill="currentColor" stroke="currentColor" stroke-width="0.2"/>
</svg>
