<svg width="11" height="14" viewBox="0 0 11 14" fill="none" xmlns="http://www.w3.org/2000/svg">
<path d="M2.46437 13.1002H8.50054C8.96059 13.1002 9.33444 12.7251 9.33444 12.2645V4.13093C9.33444 3.92874 9.17074 3.76426 8.96844 3.76426H1.99647C1.79417 3.76426 1.63047 3.92874 1.63047 4.13093V12.2645C1.63047 12.7251 2.00432 13.1002 2.46437 13.1002ZM2.36248 12.2645V4.4976H8.60257V12.2645C8.60257 12.3211 8.55653 12.3669 8.50067 12.3669H2.46437C2.40852 12.3669 2.36248 12.3211 2.36248 12.2645Z" fill="currentColor" stroke="currentColor" stroke-width="0.2"/>
<path d="M10.0682 3.66194V3.66191V3.0839C10.0682 2.62315 9.69433 2.24814 9.23429 2.24814H1.73391C1.2737 2.24814 0.9 2.62331 0.9 3.0839V3.66191C0.9 4.12266 1.27386 4.49766 1.73391 4.49766H9.23415C9.69421 4.49766 10.068 4.12266 10.0682 3.66194ZM1.63201 3.08403C1.63201 3.02742 1.67805 2.98162 1.73391 2.98162H9.23429C9.29014 2.98162 9.33618 3.02742 9.33618 3.08403V3.66204C9.33618 3.71866 9.29014 3.76445 9.23429 3.76445H1.73391C1.67805 3.76445 1.63201 3.71865 1.63201 3.66204V3.08403Z" fill="currentColor" stroke="currentColor" stroke-width="0.2"/>
<path d="M7.47327 2.61506V2.61497V1.73575C7.47327 1.27514 7.09941 0.9 6.63923 0.9H4.33058C3.87038 0.9 3.49668 1.27516 3.49668 1.73575V2.61497C3.49668 2.81717 3.66038 2.98165 3.86268 2.98165H7.10713C7.30962 2.98165 7.47309 2.81714 7.47327 2.61506ZM6.74126 1.73587V2.2483H4.22869V1.73575C4.22869 1.67914 4.27473 1.63335 4.33058 1.63335H6.63923C6.69507 1.63335 6.7412 1.67914 6.74126 1.73587Z" fill="currentColor" stroke="currentColor" stroke-width="0.2"/>
<path d="M5.1168 11.2172C5.1168 11.4194 5.2805 11.5839 5.4828 11.5839C5.68507 11.5839 5.84881 11.4196 5.84881 11.2172V5.64802C5.84881 5.44583 5.6851 5.28135 5.4828 5.28135C5.2805 5.28135 5.1168 5.44583 5.1168 5.64802V11.2172Z" fill="currentColor" stroke="currentColor" stroke-width="0.2"/>
<path d="M6.87754 11.2172C6.87754 11.4194 7.04124 11.5839 7.24354 11.5839C7.44581 11.5839 7.60955 11.4196 7.60955 11.2172V5.64802C7.60955 5.44583 7.44584 5.28135 7.24354 5.28135C7.04124 5.28135 6.87754 5.44583 6.87754 5.64802V11.2172Z" fill="currentColor" stroke="currentColor" stroke-width="0.2"/>
<path d="M3.35898 11.2172C3.35898 11.4194 3.52269 11.5839 3.72499 11.5839C3.92726 11.5839 4.09099 11.4196 4.09099 11.2172V5.64802C4.09099 5.44583 3.92729 5.28135 3.72499 5.28135C3.52269 5.28135 3.35898 5.44583 3.35898 5.64802V11.2172Z" fill="currentColor" stroke="currentColor" stroke-width="0.2"/>
</svg>
