<?xml version="1.0" encoding="UTF-8"?>
<svg version="1.1" viewBox="0 0 130 130" xmlns="http://www.w3.org/2000/svg">
  <rect width="130" height="130" fill="#d9e7e8"/>
  <path d="m113.96 94.827v4.4423c0 5.2498-4.443 9.6928-9.693 9.6928h-77.538c-5.25 0-9.6923-4.443-9.6923-9.6928v-4.4423c0-11.712 13.731-18.981 26.654-24.635l1.2115-0.6058c1.0097-0.4038 2.0193-0.4038 3.0289 0.2019 5.25 3.4327 11.106 5.25 17.365 5.25s12.317-2.0192 17.365-5.25c1.0096-0.6057 2.0192-0.6057 3.0288-0.2019l1.2115 0.6058c13.327 5.6538 27.058 12.721 27.058 24.635zm-48.462-82.788c13.327 0 24.029 11.913 24.029 26.654s-10.702 26.654-24.029 26.654-24.029-11.913-24.029-26.654 10.702-26.654 24.029-26.654z" fill="#fff"/>
</svg>
