<svg width="26" height="22" viewBox="0 0 26 22" fill="none" xmlns="http://www.w3.org/2000/svg">
<path d="M0.75 6.37988C0.745677 4.98876 1.2945 3.66633 2.32129 2.62305L2.5332 2.41797C3.69263 1.34906 5.24714 0.750013 6.91113 0.75C8.47515 0.75 9.94428 1.27997 11.082 2.23145L11.3057 2.42773L12 3.06836L12.5078 3.53711L13.0166 3.06836L13.7002 2.4375C14.865 1.36361 16.4197 0.764648 18.0889 0.764648C19.7589 0.764661 21.3084 1.3592 22.4727 2.43262C23.5616 3.43667 24.1744 4.7342 24.2432 6.11621L24.25 6.39453V6.39648C24.25 7.88162 23.625 9.2874 22.4629 10.3594L12.4961 19.5137H12.4932L2.54395 10.3408C1.37946 9.26718 0.750021 7.86523 0.75 6.38184V6.37988Z" stroke="#2E3955" stroke-width="1.5"/>
</svg>
